<?xml version="1.0" encoding="UTF-8" standalone="no"?>
<svg width="350px" height="350px" viewBox="0 0 350 350" version="1.1" xmlns="http://www.w3.org/2000/svg" xmlns:xlink="http://www.w3.org/1999/xlink" xmlns:sketch="http://www.bohemiancoding.com/sketch/ns">
    <!-- Generator: Sketch 3.0.2 (7799) - http://www.bohemiancoding.com/sketch -->
    <title>5_white_circled</title>
    <description>Created with Sketch.</description>
    <defs></defs>
    <g id="Page-1" stroke="none" stroke-width="1" fill="none" fill-rule="evenodd" sketch:type="MSPage">
        <g id="circled-white" sketch:type="MSLayerGroup">
            <circle id="Oval-2" fill="#343434" sketch:type="MSShapeGroup" cx="175" cy="175" r="175"></circle>
            <path d="M150.899155,263 C127.72713,263 106.158674,256.188097 88,244.512855 C91.2100662,244.892883 94.4764622,245.087299 97.7882146,245.087299 C117.012034,245.087299 134.704708,238.508696 148.74765,227.472459 C130.792348,227.140117 115.638904,215.243314 110.417791,198.894747 C112.922638,199.375285 115.493325,199.632794 118.137167,199.632794 C121.879805,199.632794 125.504664,199.130247 128.948096,198.189713 C110.176378,194.409969 96.0332126,177.778214 96.0332126,157.84065 C96.0332126,157.66751 96.0332126,157.495103 96.0361388,157.32343 C101.568894,160.405477 107.895388,162.256466 114.622042,162.469957 C103.612129,155.090945 96.3675336,142.495711 96.3675336,128.219693 C96.3675336,120.678546 98.3910165,113.609867 101.922967,107.532343 C122.160723,132.427887 152.395186,148.810202 186.497385,150.5262 C185.798017,147.514583 185.434434,144.373844 185.434434,141.148737 C185.434434,118.424052 203.806723,100 226.468122,100 C238.269578,100 248.933465,104.997597 256.418742,112.995072 C265.765097,111.149218 274.546692,107.724559 282.47456,103.009416 C279.410805,112.617977 272.905081,120.682214 264.432935,125.775185 C272.733165,124.780361 280.641282,122.568418 288,119.295623 C282.498701,127.547673 275.541607,134.795362 267.52522,140.597035 C267.604228,142.361453 267.643732,144.136143 267.643732,145.92037 C267.643732,200.297478 226.372289,263 150.899155,263" id="Fill-1" fill="#FFFFFF" sketch:type="MSShapeGroup"></path>
        </g>
    </g>
</svg>